PathFileType	4	(X/Y/Z)	14_2_58_p1_0-269.trc
DataRate	CameraRate	NumFrames	NumMarkers	Units	OrigDataRate	OrigDataStartFrame	OrigNumFrames
54.0	54.0	6	27	m	54.0	33	270
Frame#	Time	RHip			RKnee			RAnkle			RBigToe			RSmallToe			RHeel			LHip			LKnee			LAnkle			LBigToe			LSmallToe			LHeel			Neck			Head			Nose			RShoulder			RElbow			RWrist			RThumb			RIndex			RPinky			LShoulder			LElbow			LWrist			LThumb			LIndex			LPinky			
		X1	Y1	Z1	X2	Y2	Z2	X3	Y3	Z3	X4	Y4	Z4	X5	Y5	Z5	X6	Y6	Z6	X7	Y7	Z7	X8	Y8	Z8	X9	Y9	Z9	X10	Y10	Z10	X11	Y11	Z11	X12	Y12	Z12	X13	Y13	Z13	X14	Y14	Z14	X15	Y15	Z15	X16	Y16	Z16	X17	Y17	Z17	X18	Y18	Z18	X19	Y19	Z19	X20	Y20	Z20	X21	Y21	Z21	X22	Y22	Z22	X23	Y23	Z23	X24	Y24	Z24	X25	Y25	Z25	X26	Y26	Z26	X27	Y27	Z27	
33	0.6111111111111112	0.3119638014854964	0.5817148356748115	0.30715680348779234	0.30772923900663085	0.7714522803039712	0.7105374250151584	0.2940147474739166	0.897332690777958	1.1162130923308962	0.2683113934786838	0.7194492761764633	1.1647929757329285	0.3223229162145271	0.7387324268525636	1.16698592083462	0.282262756590869	1.000105722940951	1.1832423956090186	0.0890429696852209	0.6383525496901328	0.30140437344604404	0.09246611708166677	0.7698243905470489	0.6950596502247054	0.10715866065042494	0.8832001696327408	1.1201564106426036	0.1203534459866013	0.7254047185484064	1.1540639625878781	0.0630218206586427	0.758896463566626	1.1615783989594104	0.12829655271742008	0.9593515081980158	1.172810285335545	0.22116778309854015	0.46840176539186223	-0.3139184623232354	0.21968958936634198	0.40286067368756373	-0.5633388944964767	0.21441339406270707	0.3438346413294674	-0.41092955070364223	0.4061196890574409	0.48057056177583396	-0.21233393320708202	0.4359349483592715	0.4691968494120473	0.0066416985708079475	0.2878638119475918	0.2351500641227622	0.10001058014577982	0.1820635894303968	0.13973398116983882	0.08912803137625189	0.17769825880184506	0.08825447329045935	0.13159150070710235	0.20077578876453905	0.15906858500473053	0.18591581978001753	0.04707423719643615	0.5288177598881054	-0.24449617735499163	-0.039676842903136056	0.5598969663775066	-0.02988212619199757	-0.05442247859411845	0.31878772590313337	0.04061989710616312	-0.014586811182072126	0.19079203902140227	0.032230461482388166	-0.049437648253476	0.11468515516517581	0.049829425390141555	-0.047483678306209226	0.196453815874302	0.095376502913405
34	0.6296296296296297	0.30884475295777064	0.5970443702475822	0.3045865914321192	0.30770393640605265	0.7715196319122344	0.7105009741561138	0.2907069082939614	0.9156056778846797	1.122296045987015	0.26830312326015915	0.71969661392344	1.1649569539353655	0.3223720897826838	0.7392736534730816	1.1671603164287112	0.2822594892795727	0.9999988235899028	1.1831790209917572	0.08836934495743874	0.6361321332618243	0.29657849815839216	0.09158666836986878	0.7672351666322557	0.6904074255253064	0.1071387114114101	0.8832847589758126	1.1202290341930474	0.12032948882912418	0.7251585617389994	1.154207699416956	0.06293689356207234	0.7592742031480819	1.162020761103402	0.12822426107546522	0.9590886756826613	1.1727521276492976	0.22101595166396923	0.466675664733144	-0.32059050866086114	0.21970453464537257	0.4027361925908307	-0.5633974845312211	0.21450880121406093	0.343906515027626	-0.4109132431885307	0.4054343948854442	0.4788023298965072	-0.21916319467129708	0.43598462609262695	0.4688565509719194	0.0067105901325136	0.2979245470894031	0.24826355170128617	0.08907139293964013	0.18871374444052735	0.11553489950801872	0.07349612176218932	0.17831992250111459	0.08641691741702413	0.1244874645543364	0.21556714705251936	0.16141768300824427	0.17104079164852062	0.04714386869873781	0.5287532079649487	-0.2446961706761372	-0.04376380390367651	0.5550243907921237	-0.03732062770701409	-0.06861008425551943	0.3024020999806831	0.03303998141505434	-0.037709595812007064	0.192142752814457	0.012719698833663697	-0.061968997883943555	0.13348268333664637	0.03328095127003559	-0.06330166387567734	0.15905436553502283	0.08391881578470373
35	0.6481481481481481	0.3126887683823253	0.581189503257773	0.298978580110191	0.30790904736084557	0.7711447998892764	0.7142883363441993	0.29064519908353864	0.9154203908047351	1.1221720958505004	0.26812267140429275	0.7193003906054576	1.1652010227075627	0.3219396499180885	0.7385378452465172	1.1672453580748667	0.28213985756287524	0.9998173318290197	1.183268480362821	0.08770772398772554	0.6339383727798831	0.29194948000465043	0.09156985570634175	0.7671782430264472	0.6904112035474474	0.10707892733932482	0.8831189984157383	1.120111455322667	0.1151473288349928	0.7240971512493211	1.153899242203808	0.06292368491090232	0.7591990225265948	1.1618637066783868	0.12800679907600374	0.9585971025825084	1.1726518896777076	0.22109601135148366	0.4667661241243608	-0.3205658264618675	0.21956431093351061	0.4014140774195979	-0.5664556359510504	0.21445604407659638	0.34384399262307	-0.41090498235018946	0.405475038310451	0.47868427817012554	-0.219385032469794	0.4361001486848534	0.46887722368515583	0.006544113721003472	0.30051285691678453	0.2347530147898424	0.08514800580606824	0.19195890986424174	0.12344604998001867	0.06668737955203635	0.18204021161744996	0.0926049208434851	0.09828524002524407	0.21497286719829015	0.15755989676770363	0.1534007319184782	0.047091417480717934	0.5288862834660412	-0.24466012240524623	-0.043516124666472006	0.5527436444221523	-0.04871479531517625	-0.0765830771173998	0.30883876768830687	0.02243711439566343	-0.050054547185925516	0.17298185384801568	-0.0012778716876716025	-0.07850693949170216	0.12242131603380624	0.01996811655984052	-0.0750065715947001	0.15412284045981658	0.07528911298616563
36	0.6666666666666666	0.31285471808375637	0.5817268342598706	0.3029544244973032	0.30354255270763214	0.7689405162569285	0.7138570972724563	0.29064534300668665	0.9153311147941878	1.1220045918321226	0.2682574409288529	0.7191299469496003	1.1647663547376488	0.32222269004130766	0.73779440331686	1.1668313977724942	0.27752252916740366	0.9830008422259208	1.1770976870145238	0.08818618461557788	0.6336333753064131	0.2885165057951437	0.09667450673853449	0.7539302660383659	0.691895852216803	0.106076293234254	0.8844281315886333	1.1251542827661787	0.12052336964480515	0.7255040025565097	1.1542716839077194	0.06317994181580226	0.7589553948576936	1.1617160927857728	0.1282184116083787	0.9587380528268244	1.1725081610002865	0.22138626521691415	0.4683854697318052	-0.3170805303922895	0.21972070998605972	0.402860326510454	-0.5633326172409939	0.21447024796368436	0.34370531822972694	-0.4137588838857398	0.4036671246474416	0.4945719141101558	-0.2175267063624699	0.4360785184693079	0.4691935951582484	0.006369564555557132	0.3034481033074789	0.22136620035501162	0.08141985405862914	0.1956610774240999	0.11246686209372082	0.061921117522488224	0.1913288135980601	0.09866165786309068	0.08501414106808797	0.22061381047639989	0.14396484080404706	0.1432565364382168	0.04711860945543892	0.5288506840508833	-0.24468052204541882	-0.048328961872946746	0.5663427205137627	-0.04530971769455231	-0.08191060125525919	0.31435439952053557	0.011848926386452826	-0.0642881711489134	0.15202285296842039	-0.009784984388078235	-0.09534934316404509	0.10680510019321944	0.008974669450050071	-0.10619235305659044	0.17974411779118651	0.06449931861971774
37	0.6851851851851852	0.31749639878500924	0.5945101961934407	0.3038953812419948	0.30353004746431206	0.769045482299366	0.713775027934205	0.2939481958351898	0.8969775291102028	1.1159071374930944	0.2681826714411567	0.7194973197165908	1.1648814230640132	0.32215395655798473	0.7381423272431976	1.166922173401099	0.2822887677222003	0.9998520769937729	1.1825706897121384	0.0882267036735381	0.6335876976003756	0.28860042851245665	0.09585535062585736	0.7514332214557912	0.6869770756758169	0.10605972285884814	0.8804748433747318	1.114763164224691	0.12055577779707796	0.7254609414460806	1.1544155247698393	0.06312762216614959	0.7594584370664376	1.1620537155008455	0.128316069631434	0.9594570223348206	1.172622116532355	0.2255945406492037	0.46959798506504724	-0.31735791496035926	0.2197933028600438	0.40262895368279633	-0.5634025616831257	0.2143946830280347	0.3437611170172144	-0.4109818226327003	0.40599966944461835	0.4801307574214373	-0.2161294035615273	0.43601489689554773	0.46874058656567985	0.006484419729102509	0.3029213367191812	0.21840955139044532	0.07217772052833836	0.20291989711769384	0.10186896012880464	0.05501997693210572	0.19210021034893365	0.08340586137686246	0.07302959130559475	0.22060180963891093	0.14018512929478888	0.13620263195397656	0.05043471447128095	0.5406846953043616	-0.24926055815909245	-0.056474480957572314	0.5501956058508687	-0.041004508998393106	-0.09238776592360277	0.31095099874282184	0.0017922781227578538	-0.08094230442337226	0.12652479647884135	-0.016947995322586305	-0.10423310634519328	0.11503241542450215	0.0038280291711060032	-0.12185289539632391	0.1997613784847795	0.058968515926593766
38	0.7037037037037037	0.3174442064000251	0.5943545217953682	0.30400304610272316	0.30353895124971336	0.7690676539371555	0.7138410902725688	0.2906904204978297	0.9154316520699239	1.1220585702024024	0.26800011902113763	0.719208261850253	1.1650017928339578	0.3218790524231804	0.7379240283739275	1.1670274387188062	0.2822914458763304	0.9999783418233102	1.1828083424671743	0.08372661048538749	0.6486110575010201	0.2934693392066619	0.09245987727966916	0.7697394556276562	0.6950439865510941	0.10705425150625107	0.883246119105082	1.1201394886020264	0.12045580429413195	0.7257718703261609	1.1544268856272246	0.06305058679297099	0.759678548700534	1.162120635870801	0.12821517419203454	0.9593027976999499	1.1726616901793327	0.22559816496436405	0.46961770003873965	-0.31731114184283804	0.2199580721729264	0.40263842545929124	-0.5634668325973798	0.2180878790962451	0.3553846318664938	-0.412982678727511	0.40610154724488806	0.48033756230159663	-0.2160844561346088	0.4307844751996883	0.4663145140018222	0.003144748023109369	0.30059785115197335	0.19324054074545266	0.06446096518922406	0.19605717663410044	0.10098420048333086	0.041197099121992514	0.18332521853741887	0.07506617482045604	0.06585667697223184	0.2201547690221272	0.13673196270074875	0.13199595592474125	0.05050499453629565	0.5406871420473864	-0.24931111680984974	-0.062300948740513014	0.5719151517188691	-0.048940060379511985	-0.10588740844114454	0.3305557337614107	-0.0027904274174677356	-0.09235913057116422	0.13347436606960827	-0.016550202317115643	-0.11468908059712322	0.11365331253049954	0.0004397608785741612	-0.1282219890297011	0.18804534853843446	0.052885690200407884
